<svg id="Layer_1" data-name="Layer 1" xmlns="http://www.w3.org/2000/svg" viewBox="0 0 300 120"><defs><style>.cls-1{fill:#fff;}.cls-2{fill:#c60039;}.cls-3{fill:#8f0c3e;}</style></defs><rect class="cls-1" y="0.2" width="300" height="120"/><path class="cls-2" d="M65.26,81.86H59.2V68.56a6.67,6.67,0,0,0-1-4.14,3.53,3.53,0,0,0-2.94-1.33,4.61,4.61,0,0,0-1.71.36,6.45,6.45,0,0,0-1.72,1A8.86,8.86,0,0,0,50.3,66a6,6,0,0,0-1,2V81.86H43.24V48.1H49.3V62.55A9.11,9.11,0,0,1,52.85,59a10,10,0,0,1,4.95-1.24,7.73,7.73,0,0,1,3.75.79,5.9,5.9,0,0,1,2.27,2.1,8.88,8.88,0,0,1,1.13,3,18.57,18.57,0,0,1,.31,3.44Z"/><path class="cls-2" d="M80.42,81.91a12.87,12.87,0,0,1-5.07-1A11.44,11.44,0,0,1,69,74.53,12.42,12.42,0,0,1,68.15,70,13,13,0,0,1,69,65.26a11.33,11.33,0,0,1,2.45-3.87,11.72,11.72,0,0,1,3.89-2.65,13,13,0,0,1,5.13-1,12.63,12.63,0,0,1,5.09,1,11.76,11.76,0,0,1,3.83,2.63,11.15,11.15,0,0,1,2.4,3.82,12.72,12.72,0,0,1,.82,4.54c0,.38,0,.75,0,1.11a5,5,0,0,1-.11.89h-18a6.8,6.8,0,0,0,.67,2.44,5.94,5.94,0,0,0,3.29,3,6.19,6.19,0,0,0,2.22.4A6.94,6.94,0,0,0,84,76.69a4.56,4.56,0,0,0,2.15-2.29l5.12,1.42a10.35,10.35,0,0,1-4.12,4.38A12.73,12.73,0,0,1,80.42,81.91Zm6-14a6.2,6.2,0,0,0-1.94-4.2,6.07,6.07,0,0,0-8.25,0A6.1,6.1,0,0,0,75,65.5a6.46,6.46,0,0,0-.6,2.36Z"/><path class="cls-2" d="M103,81.91a8.86,8.86,0,0,1-3.16-.56,7.63,7.63,0,0,1-2.53-1.55,7.17,7.17,0,0,1-1.67-2.34,7.08,7.08,0,0,1-.6-2.93,6.45,6.45,0,0,1,.73-3,6.88,6.88,0,0,1,2-2.38,10.4,10.4,0,0,1,3.13-1.54,13.74,13.74,0,0,1,4-.55,18,18,0,0,1,3,.26,12.8,12.8,0,0,1,2.65.76V66.7a4.7,4.7,0,0,0-1.31-3.56,5.46,5.46,0,0,0-3.89-1.25,10.17,10.17,0,0,0-3.65.67,16.78,16.78,0,0,0-3.65,2l-1.82-3.78a17.15,17.15,0,0,1,9.69-3q5,0,7.81,2.46t2.78,7.14v7.25a2.06,2.06,0,0,0,.34,1.34,1.4,1.4,0,0,0,1.09.44v5.08a13.93,13.93,0,0,1-2.63.31,4,4,0,0,1-2.6-.76,3.24,3.24,0,0,1-1.14-2l-.13-1.29a10.37,10.37,0,0,1-3.78,3.11A10.88,10.88,0,0,1,103,81.91Zm1.69-4.36a7.9,7.9,0,0,0,2.87-.53,5.18,5.18,0,0,0,2.11-1.43,2.13,2.13,0,0,0,1-1.69V71.23a14.93,14.93,0,0,0-2.31-.64,12.71,12.71,0,0,0-2.4-.25,6.36,6.36,0,0,0-3.79,1,3.22,3.22,0,0,0-.31,5.16A4.18,4.18,0,0,0,104.67,77.55Z"/><path class="cls-2" d="M136,81.83a9.17,9.17,0,0,1-4.79-1.22,8.57,8.57,0,0,1-3.19-3.3V91H122V57.76h5.19v4.38a9.56,9.56,0,0,1,3.33-3.21,9.26,9.26,0,0,1,4.7-1.17,9.88,9.88,0,0,1,4.34,1A10.67,10.67,0,0,1,143,61.28a12.07,12.07,0,0,1,2.26,3.81,13.1,13.1,0,0,1,.82,4.64,14.71,14.71,0,0,1-.75,4.74,12.39,12.39,0,0,1-2.11,3.86,9.84,9.84,0,0,1-3.21,2.57A9.05,9.05,0,0,1,136,81.83Zm-2-5a5.37,5.37,0,0,0,2.46-.58,5.83,5.83,0,0,0,1.93-1.55,7.28,7.28,0,0,0,1.24-2.26,8,8,0,0,0,.45-2.66,7.61,7.61,0,0,0-.49-2.73,7.12,7.12,0,0,0-1.35-2.2,6.46,6.46,0,0,0-2-1.46,6.23,6.23,0,0,0-2.55-.53,5.6,5.6,0,0,0-1.73.29,5.86,5.86,0,0,0-1.64.82,7,7,0,0,0-1.36,1.24,5.15,5.15,0,0,0-.9,1.55v5.45a7.9,7.9,0,0,0,2.43,3.31A5.61,5.61,0,0,0,134,76.78Z"/><path class="cls-3" d="M166.44,53.59h-9.87V81.86h-6.19V53.59h-9.87V48.12h25.93Z"/><rect class="cls-3" x="163.19" y="57.77" width="6.06" height="24.09"/><path class="cls-3" d="M173.17,69.79a12.71,12.71,0,0,1,.84-4.62,11.35,11.35,0,0,1,2.44-3.82,12,12,0,0,1,3.86-2.62,12.79,12.79,0,0,1,5.11-1,12.19,12.19,0,0,1,6.5,1.64,10.5,10.5,0,0,1,4,4.3l-5.82,1.78a5.18,5.18,0,0,0-2-2,5.9,5.9,0,0,0-5.15-.17,5.76,5.76,0,0,0-1.93,1.42,6.46,6.46,0,0,0-1.29,2.2,8.25,8.25,0,0,0-.47,2.84,7.88,7.88,0,0,0,.49,2.84,7.16,7.16,0,0,0,1.31,2.22A5.78,5.78,0,0,0,183,76.29a5.58,5.58,0,0,0,2.35.51,5.77,5.77,0,0,0,3-.8,4.44,4.44,0,0,0,1.88-2L196,75.82a9.83,9.83,0,0,1-3.95,4.36,12.48,12.48,0,0,1-6.62,1.68,12.78,12.78,0,0,1-5.1-1A11.66,11.66,0,0,1,174,74.38,12.35,12.35,0,0,1,173.17,69.79Z"/><path class="cls-3" d="M215.23,81.86l-6.87-10.27-3.25,3.21v7.06h-6.06V48.1h6.06V68.88l9.49-11.07h6.47l-8.82,10.44,9.45,13.61Z"/><path class="cls-3" d="M233.37,81.87a12.86,12.86,0,0,1-5.06-1,11.52,11.52,0,0,1-3.86-2.6A11.38,11.38,0,0,1,222,74.49a12.37,12.37,0,0,1-.86-4.57,13,13,0,0,1,.84-4.68,11.46,11.46,0,0,1,2.44-3.87,11.65,11.65,0,0,1,3.89-2.64,12.93,12.93,0,0,1,5.13-1,12.61,12.61,0,0,1,5.08,1,11.7,11.7,0,0,1,3.82,2.62,11.24,11.24,0,0,1,2.4,3.82,12.66,12.66,0,0,1,.82,4.53c0,.38,0,.75,0,1.11a6.16,6.16,0,0,1-.11.89h-18a6.8,6.8,0,0,0,.67,2.44,6,6,0,0,0,3.28,3,6.28,6.28,0,0,0,2.23.4,6.82,6.82,0,0,0,3.35-.86,4.56,4.56,0,0,0,2.15-2.29l5.11,1.42a10.39,10.39,0,0,1-4.11,4.38A12.73,12.73,0,0,1,233.37,81.87Zm6-14a6.19,6.19,0,0,0-1.93-4.19,6.22,6.22,0,0,0-6.39-1.16,5.89,5.89,0,0,0-3.16,3,6.46,6.46,0,0,0-.6,2.35Z"/><path class="cls-3" d="M262.43,80.24a26.64,26.64,0,0,1-3,1.08,12.55,12.55,0,0,1-3.7.55,8.66,8.66,0,0,1-2.38-.32,5.16,5.16,0,0,1-1.94-1,5.07,5.07,0,0,1-1.34-1.81,6.56,6.56,0,0,1-.49-2.69V62.42h-3.12V57.77h3.12V48.15h6.06v9.62h5v4.65h-5V74a2.13,2.13,0,0,0,.65,1.78,2.49,2.49,0,0,0,1.61.52,5.57,5.57,0,0,0,1.85-.31c.6-.21,1.09-.39,1.45-.55Z"/><path class="cls-3" d="M275,81.83a18,18,0,0,1-5.72-.93,14,14,0,0,1-4.79-2.66l2.22-3.73a18.93,18.93,0,0,0,4.14,2.29,11.27,11.27,0,0,0,4,.77,5.11,5.11,0,0,0,2.8-.66,2.15,2.15,0,0,0,1-1.91,1.91,1.91,0,0,0-1.2-1.82,27.46,27.46,0,0,0-3.9-1.33c-1.51-.41-2.8-.81-3.86-1.19a10.06,10.06,0,0,1-2.57-1.31,4.52,4.52,0,0,1-1.42-1.69,5.27,5.27,0,0,1-.44-2.28,7.32,7.32,0,0,1,.68-3.19,7.09,7.09,0,0,1,1.93-2.42,9.17,9.17,0,0,1,2.91-1.53,11.93,11.93,0,0,1,3.61-.53,15.62,15.62,0,0,1,4.9.75,12.12,12.12,0,0,1,4.19,2.44l-2.4,3.59a14.23,14.23,0,0,0-3.43-1.95,9.48,9.48,0,0,0-3.3-.62,4.81,4.81,0,0,0-2.53.62,2.17,2.17,0,0,0-1,2,2,2,0,0,0,.24,1,2.18,2.18,0,0,0,.78.71,8.46,8.46,0,0,0,1.4.6c.57.19,1.29.39,2.15.59,1.59.42,3,.83,4.1,1.24a11.68,11.68,0,0,1,2.79,1.42,5.21,5.21,0,0,1,1.6,1.84,5.82,5.82,0,0,1,.51,2.51,6.47,6.47,0,0,1-2.53,5.38A10.88,10.88,0,0,1,275,81.83Z"/><path class="cls-2" d="M35.26,71.24a7.33,7.33,0,0,1-1.53,2.37,8.87,8.87,0,0,1-4.44,2.5,10.19,10.19,0,0,1-2.39.29,8.72,8.72,0,0,1-4-1,10.23,10.23,0,0,1-3.15-2.54,11.49,11.49,0,0,1-2-3.65A13.14,13.14,0,0,1,17,64.94a13.87,13.87,0,0,1,.62-4,11.72,11.72,0,0,1,1.84-3.63,9.31,9.31,0,0,1,3.06-2.6,8.9,8.9,0,0,1,4.32-1,10.51,10.51,0,0,1,2.34.27,9.19,9.19,0,0,1,2.3.83,8.21,8.21,0,0,1,2.05,1.55,8.54,8.54,0,0,1,1.62,2.42l5.07-3.49a13.13,13.13,0,0,0-5.09-5.35A14.37,14.37,0,0,0,29.52,48V44.23l-6.2,1.26v2.7a14.61,14.61,0,0,0-3.4,1.13,16.3,16.3,0,0,0-5.25,3.87,16.65,16.65,0,0,0-3.27,5.42,17.24,17.24,0,0,0,.09,12.51,18.4,18.4,0,0,0,3.39,5.59,17.31,17.31,0,0,0,5.19,4,13.68,13.68,0,0,0,3.25,1.16v2.71l6.2,1.26V82c.46-.07.92-.16,1.39-.28a17.37,17.37,0,0,0,4-1.53,14.49,14.49,0,0,0,3.39-2.46,10.38,10.38,0,0,0,2.32-3.36Z"/><g id="R-Ball"><path class="cls-3" d="M287.64,57.77a2.27,2.27,0,0,1-.83-.15,1.92,1.92,0,0,1-.65-.42,2,2,0,0,1-.44-.63,2.16,2.16,0,0,1,0-1.58,2,2,0,0,1,.44-.63,2.06,2.06,0,0,1,.65-.41,2.37,2.37,0,0,1,1.66,0,2.23,2.23,0,0,1,.66.41,2,2,0,0,1,.44.63,2,2,0,0,1,0,1.58,2,2,0,0,1-.44.63,2.06,2.06,0,0,1-.66.42A2.27,2.27,0,0,1,287.64,57.77Zm0-.27a1.82,1.82,0,0,0,.7-.13,1.67,1.67,0,0,0,.94-.89,1.75,1.75,0,0,0,0-1.37,1.58,1.58,0,0,0-.37-.54,1.66,1.66,0,0,0-.56-.37,2,2,0,0,0-1.42,0,1.62,1.62,0,0,0-.55.37,1.58,1.58,0,0,0-.37.54,1.67,1.67,0,0,0-.13.67,1.72,1.72,0,0,0,.13.68,1.68,1.68,0,0,0,.37.54,1.62,1.62,0,0,0,.55.37A1.83,1.83,0,0,0,287.64,57.5Zm-.89-2.94h1.07a.82.82,0,0,1,.31.07.75.75,0,0,1,.24.19.71.71,0,0,1,.16.26.75.75,0,0,1,.06.29.85.85,0,0,1-.12.43.64.64,0,0,1-.32.27l.57.91h-.59l-.51-.81h-.35V57h-.52Zm1,1.16a.26.26,0,0,0,.21-.09.35.35,0,0,0,.08-.26.34.34,0,0,0-.09-.26.29.29,0,0,0-.21-.09h-.5v.7Z"/></g></svg>