<?xml version="1.0" encoding="utf-8"?>
<!-- Generator: Adobe Illustrator 27.4.1, SVG Export Plug-In . SVG Version: 6.00 Build 0)  -->
<svg version="1.1" id="Layer_1" xmlns="http://www.w3.org/2000/svg" xmlns:xlink="http://www.w3.org/1999/xlink" x="0px" y="0px"
	 viewBox="0 0 220.1 42.7" style="enable-background:new 0 0 220.1 42.7;" xml:space="preserve">
<style type="text/css">
	.st0{fill:#191E3B;}
	.st1{fill:#FDDB32;}
</style>
<g>
	<path class="st0" d="M86.5,22.8L94,12.5c0.2-0.3,0-0.6-0.3-0.6h-4.1c-0.2,0-0.5,0.1-0.6,0.3L84,19.4l-5-7.2
		c-0.1-0.2-0.4-0.3-0.6-0.3H74c-0.2,0-0.4,0.2-0.4,0.4c0,0.1,0,0.2,0.1,0.3l7.5,10.3L73,34.2c-0.2,0.3,0,0.6,0.3,0.6h4.1
		c0.2,0,0.5-0.1,0.6-0.3l5.7-8.2l5.8,8.2c0.1,0.2,0.4,0.3,0.6,0.3h4.4c0.2,0,0.4-0.2,0.4-0.4c0-0.1,0-0.2-0.1-0.3L86.5,22.8z"/>
	<path class="st0" d="M69.8,3.3c0.3,0,0.5,0.2,0.5,0.5v3.1c0,0.3-0.2,0.5-0.5,0.5H55.3v9.1h13.1c0.3,0,0.5,0.2,0.5,0.5v3
		c0,0.3-0.2,0.5-0.5,0.5H55.3v10h14.6c0.3,0,0.5,0.2,0.5,0.5v3.2c0,0.3-0.2,0.5-0.5,0.5h-17c-1.3,0-2.3-1-2.3-2.3v-27
		c0-1.3,1-2.3,2.3-2.3L69.8,3.3L69.8,3.3z"/>
	<path class="st0" d="M109.4,31.6c-4.4,0-7.4-3-7.4-8.3s3-8.3,7.4-8.3s7.4,3.1,7.4,8.3C116.8,28.7,113.8,31.6,109.4,31.6
		 M110.2,11.2c-4.4,0-6.8,1.9-8.1,3.7v-2.5c0-0.3-0.2-0.5-0.5-0.5H98c-0.3,0-0.5,0.2-0.5,0.5v29.7c0,0.3,0.2,0.5,0.5,0.5h3.6
		c0.3,0,0.5-0.2,0.5-0.5V31.9c1.3,1.8,3.7,3.6,8.1,3.6c7.2,0,11.4-5.4,11.4-12.2C121.6,16.6,117.4,11.2,110.2,11.2"/>
	<path class="st0" d="M129.3,21.1c0.5-3.8,2.5-6.2,6.4-6.2c4,0,6.1,2.3,6.4,6.2H129.3z M135.8,11.2c-6.3,0-11.3,4.5-11.3,12
		c0,7.7,4.4,12.4,11.9,12.4c4.3,0,7.8-1.9,10.1-4.5c0.1-0.1,0.2-0.3,0.2-0.4c0-0.1,0-0.3-0.2-0.4l-2.1-2c-0.1-0.1-0.3-0.2-0.4-0.2
		c-0.1,0-0.3,0.1-0.4,0.2c-1.7,1.8-3.9,3.4-7.1,3.4c-4.7,0-6.9-2.9-7.3-7h17.3c0.3,0,0.5-0.2,0.5-0.5v-0.9
		C147,16.3,142.8,11.2,135.8,11.2"/>
	<path class="st0" d="M200.1,31.7c-4.4,0-7.4-3.1-7.4-8.3s3-8.3,7.4-8.3s7.4,3,7.4,8.3S204.5,31.7,200.1,31.7 M211.5,11.9h-3.6
		c-0.3,0-0.5,0.2-0.5,0.5V15c-1.3-1.8-3.7-3.7-8.2-3.7c-7.1,0-11.3,5.4-11.3,12.2s4.2,12.2,11.3,12.2c4.5,0,6.9-1.9,8.2-3.7v2.5
		c0,0.3,0.2,0.5,0.5,0.5h3.6c0.3,0,0.5-0.2,0.5-0.5V12.4C212,12.1,211.8,11.9,211.5,11.9"/>
	<path class="st0" d="M217.7,16c-1.2,0-2-0.9-2-2c0-1.1,0.8-2,2-2c1.1,0,1.9,0.9,1.9,2C219.6,15.1,218.8,16,217.7,16 M217.7,11.5
		c-1.4,0-2.5,1.1-2.5,2.4c0,1.4,1.1,2.5,2.5,2.5c1.4,0,2.4-1.1,2.4-2.5C220.1,12.6,219,11.5,217.7,11.5"/>
	<path class="st0" d="M217.8,13.8h-0.5v-0.6h0.5c0.3,0,0.4,0.2,0.4,0.3C218.1,13.7,218,13.8,217.8,13.8 M218.1,14.2
		c0.4-0.1,0.5-0.4,0.5-0.7c0-0.4-0.3-0.7-0.8-0.7h-0.9c0,0-0.1,0-0.1,0.1v2.3c0,0,0,0.1,0.1,0.1h0.3c0,0,0.1,0,0.1-0.1v-0.9h0.4
		l0.4,0.9c0,0.1,0.1,0.1,0.1,0.1h0.3c0,0,0.1,0,0-0.1L218.1,14.2z"/>
	<path class="st0" d="M162.1,31.7c-4.4,0-7.4-3.1-7.4-8.3c0-5.3,3-8.3,7.4-8.3s7.4,3,7.4,8.3S166.5,31.7,162.1,31.7 M173.5,3.3h-3.6
		c-0.3,0-0.5,0.2-0.5,0.5V15c-1.3-1.8-3.7-3.7-8.2-3.7c-7.1,0-11.3,5.4-11.3,12.2s4.2,12.2,11.3,12.2c4.5,0,6.9-1.9,8.2-3.7v2.5
		c0,0.3,0.2,0.5,0.5,0.5h3.6c0.3,0,0.5-0.2,0.5-0.5V3.8C174,3.5,173.8,3.3,173.5,3.3"/>
	<path class="st0" d="M183.3,3.3c0.3,0,0.5,0.2,0.5,0.5v3.7c0,0.3-0.2,0.5-0.5,0.5h-3.7c-0.3,0-0.5-0.2-0.5-0.5V3.8
		c0-0.3,0.2-0.5,0.5-0.5L183.3,3.3L183.3,3.3z"/>
	<path class="st0" d="M183.3,11.9c0.3,0,0.5,0.2,0.5,0.5v21.9c0,0.3-0.2,0.5-0.5,0.5h-3.6c-0.3,0-0.5-0.2-0.5-0.5V12.4
		c0-0.3,0.2-0.5,0.5-0.5H183.3z"/>
	<g>
		<path class="st1" d="M30.3,38.1H7.8c-4.3,0-7.8-3.5-7.8-7.8V7.8C0,3.5,3.5,0,7.8,0h22.4c4.3,0,7.8,3.5,7.8,7.8v22.4
			C38.1,34.6,34.6,38.1,30.3,38.1"/>
		<path class="st0" d="M11.6,30.7V27c0-0.3-0.2-0.5-0.5-0.5H7.4c-0.3,0-0.5,0.2-0.5,0.5v3.7c0,0.3,0.2,0.5,0.5,0.5h3.7
			C11.4,31.2,11.6,31,11.6,30.7"/>
		<path class="st0" d="M31.2,27.5V9.3c0-1.4-1.1-2.4-2.4-2.4H10.6C10.2,6.9,10,7,9.8,7.2l-3.7,3.7c-0.3,0.3-0.1,0.7,0.3,0.7h16.5
			L12.7,21.8c-0.2,0.2-0.3,0.4-0.3,0.7v2.7c0,0.3,0.2,0.5,0.5,0.5h2.7c0.3,0,0.5-0.1,0.7-0.3l10.2-10.2v16.5c0,0.4,0.4,0.6,0.7,0.3
			l3.7-3.7C31.1,28.1,31.2,27.9,31.2,27.5"/>
	</g>
</g>
</svg>
