<?xml version="1.0" encoding="utf-8"?>
<!-- Generator: Adobe Illustrator 27.4.1, SVG Export Plug-In . SVG Version: 6.00 Build 0)  -->
<svg version="1.1" id="Layer_1" xmlns="http://www.w3.org/2000/svg" xmlns:xlink="http://www.w3.org/1999/xlink" x="0px" y="0px"
	 viewBox="0 0 220.5 38.5" style="enable-background:new 0 0 220.5 38.5;" xml:space="preserve">
<style type="text/css">
	.st0{fill:#EF3346;}
	.st1{fill:#191E3B;}
	.st2{fill:#FDDB32;}
</style>
<g>
	<path class="st0" d="M30.6,38.5H7.9C3.6,38.5,0,35,0,30.6V7.9C0,3.6,3.5,0,7.9,0h22.7c4.4,0,7.9,3.5,7.9,7.9v22.7
		C38.5,35,35,38.5,30.6,38.5"/>
	<path class="st1" d="M13.7,17.1c0-0.3-0.2-0.6-0.6-0.6H9.4c-0.3,0-0.6,0.2-0.6,0.6v3.7c0,0.3,0.2,0.6,0.6,0.6h3.7
		c0.3,0,0.6-0.2,0.6-0.6V17.1z"/>
	<path class="st1" d="M22,25.4c0-0.3-0.2-0.6-0.6-0.6h-3.7c-0.3,0-0.6,0.2-0.6,0.6v3.7c0,0.3,0.2,0.6,0.6,0.6h3.7
		c0.3,0,0.6-0.2,0.6-0.6V25.4z"/>
	<path class="st2" d="M22,17.1c0-0.3-0.2-0.6-0.6-0.6h-3.7c-0.3,0-0.6,0.2-0.6,0.6v3.7c0,0.3,0.2,0.6,0.6,0.6h3.7
		c0.3,0,0.6-0.2,0.6-0.6V17.1z"/>
	<path class="st1" d="M129.6,21.3c0.5-3.8,2.5-6.3,6.5-6.3c4.1,0,6.2,2.3,6.5,6.3H129.6z M136.2,11.3c-6.3,0-11.4,4.6-11.4,12.1
		c0,7.8,4.5,12.5,12,12.5c4.3,0,7.9-1.9,10.2-4.6c0.1-0.1,0.2-0.3,0.2-0.4c0-0.1,0-0.3-0.2-0.4l-2.1-2.1c-0.1-0.1-0.3-0.2-0.4-0.2
		c-0.1,0-0.3,0.1-0.4,0.2c-1.7,1.9-4,3.5-7.2,3.5c-4.7,0-7-2.9-7.3-7.1H147c0.3,0,0.6-0.2,0.6-0.6v-0.9
		C147.5,16.5,143.4,11.3,136.2,11.3"/>
	<path class="st1" d="M75.7,3.3h-3.8c-0.3,0-0.6,0.2-0.6,0.6v12.8H56V3.9c0-0.3-0.2-0.6-0.6-0.6h-3.8c-0.3,0-0.6,0.2-0.6,0.6v30.8
		c0,0.3,0.2,0.6,0.6,0.6h3.8c0.3,0,0.6-0.2,0.6-0.6V20.9h15.4v13.8c0,0.3,0.2,0.6,0.6,0.6h3.8c0.3,0,0.6-0.2,0.6-0.6V3.9
		C76.2,3.5,76,3.3,75.7,3.3"/>
	<path class="st1" d="M155.8,3.3h-3.6c-0.3,0-0.6,0.2-0.6,0.6v30.8c0,0.3,0.2,0.6,0.6,0.6h3.6c0.3,0,0.6-0.2,0.6-0.6V3.9
		C156.4,3.5,156.2,3.3,155.8,3.3"/>
	<path class="st1" d="M92.9,31.9c-5.1,0-7.8-3.8-7.8-8.3c0-4.5,2.7-8.3,7.8-8.3c5.1,0,7.8,3.8,7.8,8.3S98,31.9,92.9,31.9 M92.9,11.3
		c-6.8,0-12.5,5-12.5,12.3s5.7,12.3,12.5,12.3s12.5-5,12.5-12.3C105.4,16.3,99.7,11.3,92.9,11.3"/>
	<path class="st1" d="M122,12h-5.9V4.3c0-0.4-0.4-0.6-0.7-0.3l-3.7,3.7c-0.2,0.2-0.4,0.5-0.4,0.8V12h-4.1c-0.3,0-0.6,0.2-0.6,0.6
		v2.6c0,0.3,0.2,0.6,0.6,0.6h4.1v12.5c0,4.3,2.1,7.1,6.4,7.1h4.3c0.3,0,0.6-0.2,0.6-0.6v-2.9c0-0.3-0.2-0.6-0.6-0.6h-3
		c-2.1,0-2.9-0.8-2.9-3V15.7h5.9c0.3,0,0.6-0.2,0.6-0.6v-2.6C122.6,12.2,122.3,12,122,12"/>
	<path class="st1" d="M183.6,33.3H182c-0.2,0-0.3,0.1-0.3,0.3V35c0,0.2,0.1,0.3,0.3,0.3h1.6c0.2,0,0.3-0.1,0.3-0.3v-1.5
		C183.8,33.4,183.7,33.3,183.6,33.3"/>
	<path class="st1" d="M197.8,34c-1.5,0-2.2-1-2.2-2.3c0-1.3,0.7-2.3,2.2-2.3c1.5,0,2.2,1.1,2.2,2.3C200,33,199.2,34,197.8,34
		 M197.8,27.9c-2.1,0-3.8,1.5-3.8,3.7c0,2.3,1.7,3.7,3.8,3.7s3.8-1.5,3.8-3.7C201.5,29.5,199.8,27.9,197.8,27.9"/>
	<path class="st1" d="M170.9,21.3c-3.7-0.8-5.6-1.5-5.6-3.4c0-1.8,1.6-2.9,4.6-2.9c2.6,0,4.7,1.2,6,3.1c0.2,0.3,0.5,0.3,0.8,0.1
		l2.5-1.6c0.3-0.2,0.4-0.5,0.2-0.8c-2-3.1-5.2-4.6-9.3-4.6c-4.7,0-8.8,2.3-8.8,6.9c0,4.9,3.9,6.2,9,7.3c3.6,0.8,5.2,1.4,5.2,3.5
		c0,2.1-1.9,3.2-5,3.2c-3.3,0-5.4-1.3-6.8-3.4c-0.2-0.3-0.5-0.4-0.8-0.2l-2.5,1.7c-0.3,0.2-0.3,0.5-0.2,0.7
		c1.9,3.2,5.3,4.9,10.3,4.9c6.2,0,9.7-3.1,9.7-7.2C180,24,176.1,22.5,170.9,21.3"/>
	<path class="st1" d="M210.9,27.9c-1.1,0-1.7,0.4-2.3,1.1c-0.4-0.6-1.2-1.1-2.1-1.1c-1,0-1.6,0.5-2,1v-0.5c0-0.2-0.1-0.3-0.3-0.3
		h-1.1c-0.2,0-0.3,0.1-0.3,0.3V35c0,0.2,0.1,0.3,0.3,0.3h1.1c0.2,0,0.3-0.1,0.3-0.3v-3.4c0-1.3,0.4-2.2,1.5-2.2c1,0,1.3,0.6,1.3,1.5
		V35c0,0.2,0.1,0.3,0.3,0.3h1.1c0.2,0,0.3-0.1,0.3-0.3v-3.4c0-1.3,0.4-2.2,1.6-2.2c0.9,0,1.3,0.6,1.3,1.5V35c0,0.2,0.1,0.3,0.3,0.3
		h1.1c0.2,0,0.3-0.1,0.3-0.3v-4.3C213.6,29.1,212.6,27.9,210.9,27.9"/>
	<path class="st1" d="M192.2,32.9c-0.2-0.2-0.3-0.1-0.4,0c-0.7,0.8-1.2,1.1-2,1.1c-1.3,0-2-1-2-2.3c0-1.3,0.6-2.3,1.9-2.3
		c0.9,0,1.4,0.4,1.8,0.9c0.1,0.1,0.3,0.2,0.4,0.1l0.6-0.5c0.2-0.1,0.3-0.3,0.1-0.5c-0.6-0.8-1.6-1.4-3-1.4c-2.2,0-3.6,1.5-3.6,3.7
		s1.4,3.8,3.5,3.8c1.5,0,2.5-0.6,3.2-1.6c0.1-0.2,0.1-0.3,0-0.4L192.2,32.9z"/>
	<path class="st1" d="M31.6,9.4c0-1.4-1.1-2.5-2.5-2.5H10.7c-0.4,0-0.6,0.1-0.8,0.4L6.2,11c-0.3,0.3-0.1,0.7,0.3,0.7h20.3V32
		c0,0.4,0.4,0.6,0.7,0.3l3.7-3.7c0.2-0.2,0.4-0.5,0.4-0.8L31.6,9.4L31.6,9.4z"/>
	<path class="st1" d="M220.4,28.2H220c-0.1,0-0.1,0-0.2,0.1l-0.7,1.9l-0.8-1.9c0-0.1-0.1-0.1-0.2-0.1h-0.5c0,0-0.1,0-0.1,0.1v2.3
		c0,0,0,0.1,0.1,0.1h0.2c0,0,0.1,0,0.1-0.1v-2l0.8,2c0,0.1,0.1,0.1,0.2,0.1h0.2c0.1,0,0.1,0,0.2-0.1l0.8-2v2c0,0,0,0.1,0.1,0.1h0.2
		c0,0,0.1,0,0.1-0.1L220.4,28.2C220.5,28.2,220.5,28.2,220.4,28.2"/>
	<path class="st1" d="M217.1,28.2h-1.9c0,0-0.1,0-0.1,0.1v0.2c0,0,0,0.1,0.1,0.1h0.7v2c0,0,0,0.1,0.1,0.1h0.3c0,0,0.1,0,0.1-0.1v-2
		h0.7c0,0,0.1,0,0.1-0.1L217.1,28.2C217.1,28.2,217.1,28.2,217.1,28.2"/>
</g>
</svg>
