<svg id="Layer_1" data-name="Layer 1" xmlns="http://www.w3.org/2000/svg" viewBox="0 0 300 120"><defs><style>.cls-1{fill:#fff;}.cls-2{fill:#19171b;}.cls-3{fill:#e5363a;}</style></defs><rect class="cls-1" y="0.2" width="300" height="120"/><path class="cls-2" d="M191.94,48.83a3.31,3.31,0,0,1-3.32-3.32,3.35,3.35,0,0,1,3.32-3.38,3.41,3.41,0,0,1,3.38,3.38A3.36,3.36,0,0,1,191.94,48.83Z"/><path class="cls-3" d="M116.7,67.25a14.53,14.53,0,1,1-14.53-14.53A14.53,14.53,0,0,1,116.7,67.25Z"/><path class="cls-2" d="M57.12,42.65h6.25V57.18h.11A9.12,9.12,0,0,1,66.91,54,10.09,10.09,0,0,1,72,52.68a10.59,10.59,0,0,1,7.35,2.42Q82,57.52,82,62.34V81.81H75.77V64c-.08-2.23-.55-3.85-1.43-4.85a5.17,5.17,0,0,0-4.11-1.51,6.7,6.7,0,0,0-2.86.58,6.15,6.15,0,0,0-2.14,1.59,7.53,7.53,0,0,0-1.37,2.38,8.55,8.55,0,0,0-.49,2.91V81.81H57.12Z"/><path class="cls-2" d="M121.05,53.45h4.72V45H132v8.5h5.65v4.66H132V73.25a16.3,16.3,0,0,0,.08,1.7,2.88,2.88,0,0,0,.39,1.21,1.85,1.85,0,0,0,.9.74,4.54,4.54,0,0,0,1.65.25l1.31,0a6.67,6.67,0,0,0,1.32-.19v4.82l-2,.22a19.27,19.27,0,0,1-2,.11,13.92,13.92,0,0,1-4-.46,5.3,5.3,0,0,1-2.36-1.38A4.76,4.76,0,0,1,126.12,78a16.79,16.79,0,0,1-.35-3.13V58.11h-4.72Z"/><path class="cls-2" d="M141.51,53.45h6.63l5.54,21.17h.11l5.32-21.17h6.31l5.1,21.17h.11l5.76-21.17h6.36l-8.88,28.36h-6.42l-5.26-21.06h-.11l-5.21,21.06h-6.59Z"/><path class="cls-2" d="M188.84,53.45h6.25V81.81h-6.25Z"/><path class="cls-2" d="M203.82,53.45h5.86v5.49h.11a6.44,6.44,0,0,1,1.07-2.25,10.34,10.34,0,0,1,1.92-2,9.59,9.59,0,0,1,2.5-1.46,7.55,7.55,0,0,1,2.8-.55,12.21,12.21,0,0,1,1.5.06l.85.11v6c-.43-.07-.88-.14-1.34-.19a10.24,10.24,0,0,0-1.34-.08,7.19,7.19,0,0,0-3,.63,6.77,6.77,0,0,0-2.44,1.86,9.08,9.08,0,0,0-1.65,3.05,13.17,13.17,0,0,0-.6,4.16v13.5h-6.25Z"/><path class="cls-2" d="M229,69.38a11,11,0,0,0,.47,3.19,7.83,7.83,0,0,0,1.4,2.69,6.73,6.73,0,0,0,2.37,1.85,7.77,7.77,0,0,0,3.41.68A7.5,7.5,0,0,0,241,76.61a7,7,0,0,0,2.5-3.54h5.94a12,12,0,0,1-1.7,4.12,11.79,11.79,0,0,1-2.92,3A12.36,12.36,0,0,1,241,82.11a15.43,15.43,0,0,1-4.42.63,14.92,14.92,0,0,1-5.94-1.1,12.28,12.28,0,0,1-4.38-3.08,13,13,0,0,1-2.69-4.73,19.28,19.28,0,0,1-.91-6,16.89,16.89,0,0,1,1-5.75,14.51,14.51,0,0,1,2.75-4.78,12.84,12.84,0,0,1,10-4.49,12.67,12.67,0,0,1,6,1.41,13.21,13.21,0,0,1,4.43,3.71,15.08,15.08,0,0,1,2.55,5.3,16.45,16.45,0,0,1,.42,6.19Zm14.63-4.12A10.59,10.59,0,0,0,243,62.4,7.6,7.6,0,0,0,241.52,60a7.11,7.11,0,0,0-2.2-1.65,6.39,6.39,0,0,0-2.89-.64,7.64,7.64,0,0,0-3,.58,6.88,6.88,0,0,0-2.31,1.6,7.86,7.86,0,0,0-1.54,2.39,8.46,8.46,0,0,0-.63,3Z"/><path class="cls-2" d="M250.5,51.75a2.39,2.39,0,1,1-2.41,2.37A2.37,2.37,0,0,1,250.5,51.75Zm0,4.42a2,2,0,1,0-2-2.05A2,2,0,0,0,250.5,56.17Zm-.94-3.43h1.08c.67,0,1,.26,1,.8a.71.71,0,0,1-.73.75l.79,1.24h-.46l-.76-1.2H250v1.2h-.44ZM250,54h.45c.38,0,.74,0,.74-.46s-.32-.43-.62-.43H250Z"/></svg>