<svg id="Layer_1" data-name="Layer 1" xmlns="http://www.w3.org/2000/svg" viewBox="0 0 300 120"><defs><style>.cls-1{fill:#fff;}.cls-2{fill:#133c64;}.cls-3{fill:#e44123;}.cls-4{fill:#89b1d7;}</style></defs><rect class="cls-1" y="0.2" width="300" height="120"/><path class="cls-2" d="M100.07,55.42h3.6v4.27h.09c1.73-2.94,3.6-4.61,7.33-4.61v3a6.68,6.68,0,0,0-4.62,1.85,8.93,8.93,0,0,0-2.8,5.88V77h-3.6Z"/><path class="cls-2" d="M114.13,59.57c1.43-2.5,4.69-4.57,8.94-4.57,3.82,0,8.29,1.75,8.29,6.47V72.34a16.13,16.13,0,0,0,.52,4.64h-3.69l-.34-3a10.32,10.32,0,0,1-7.47,3.4c-3.47,0-6.9-2-6.9-5.93,0-4.73,4.26-7.1,14.28-8.79V61.52c0-2.87-2-4-4.65-4-3.46,0-5.16,1.91-5.76,3.36Zm13.63,5.76c-7.16,1.2-10.67,3.19-10.67,6.18,0,2,2,3.31,3.73,3.31,2.25,0,5.12-1.57,6.94-3.56Z"/><path class="cls-2" d="M145.81,77h-4.64l-6.95-21.56h3.66l5.72,17.83h.09l5.73-17.83h3.16Z"/><path class="cls-2" d="M182.54,46.45V77H178.9V48Z"/><path class="cls-2" d="M196.53,77.4c-6.16,0-9.72-5-9.72-11.2S190.37,55,196.53,55s9.72,5,9.72,11.2S202.69,77.4,196.53,77.4Zm0-19.83c-3.73,0-6.12,3.08-6.12,8.63s2.39,8.62,6.12,8.62,6.11-3.06,6.11-8.62S200.26,57.57,196.53,57.57Z"/><path class="cls-2" d="M224.22,61.85c-.87-2.62-2.65-4.28-5.33-4.28-3.86,0-6.12,3.15-6.12,8.63s2.26,8.62,6.12,8.62c2.86,0,4.46-.91,6.2-4l3,1.07c-2.26,3.65-4.74,5.48-9.2,5.48-5.65,0-9.73-4.23-9.73-11.2S213.24,55,218.89,55a8.86,8.86,0,0,1,8.72,5.85Z"/><path class="cls-2" d="M231.88,55.42h3.61V77h-3.61Z"/><path class="cls-2" d="M92,74.82c-1.82,0-2.56-.49-2.56-1.48V58h4.51l.7-2.57H89.4V47.73l-3.61,1.55v6.14H82.47V58h3.32V73.83c.37,2.74,1.92,3.57,5.3,3.57a16.61,16.61,0,0,0,3.37-.3l.68-2.54A19.85,19.85,0,0,1,92,74.82Z"/><path class="cls-2" d="M274.38,55.42l-7.94,23.47c-1.77,4.81-5.2,6.17-8.15,6.17a25.11,25.11,0,0,1-3-.25l.77-2.56a16.65,16.65,0,0,0,1.7.12c1.9,0,4.81-.41,5.9-5.14l-7.85-21.81h3.29l6.07,16.46h.09l5.3-16.46Z"/><path class="cls-2" d="M249.93,74.82c-1.83,0-2.56-.49-2.56-1.48V58h4.51l.7-2.57h-5.21V47.73l-3.61,1.55v6.14h-3.32V58h3.32V73.83c.37,2.74,1.92,3.57,5.3,3.57a16.61,16.61,0,0,0,3.37-.3l.68-2.54A19.85,19.85,0,0,1,249.93,74.82Z"/><path class="cls-2" d="M171.57,71.29a7,7,0,0,1-6.18,3.53c-3.73,0-6.67-3.31-6.67-8h15.14v-2c0-6.89-4.39-9.79-9.07-9.79-5.56,0-9.68,4.23-9.68,11.2,0,7.88,5.25,11.2,10.28,11.2,4.31,0,5.8-.38,8.44-3.94Zm-6.7-13.72c3.39,0,5.38,2.66,5.38,6.64H158.8C159.06,60.23,161.1,57.57,164.87,57.57Z"/><rect class="cls-2" x="231.88" y="48.13" width="3.61" height="3.57"/><path class="cls-3" d="M23.69,42.48c.54-.23,1.09-.28,1.65-.47a23.2,23.2,0,0,1-2.5-2.8c-.22-.29-.11-.45.07-.51s.05-.35.16-.51c.37-.12.33-.48.53-.71,0-.09,0-.35.06-.43a.4.4,0,0,1,.45,0,10.92,10.92,0,0,0,2.27,1.89,20.87,20.87,0,0,1,2.79,2c.08,0,.33.14.35,0a7.46,7.46,0,0,1,.77-2.35,3.52,3.52,0,0,1,.37-.82A3.25,3.25,0,0,1,32,36.55c.76-.42,1.67,0,2.19-.66.2-.14.53,0,.7,0,.49.24,1.21.08,1.59.48A42.14,42.14,0,0,0,35.27,41c-.05.34-.29.83-.05,1A6.7,6.7,0,0,0,38,41.86a12.25,12.25,0,0,1,3,.25,4.85,4.85,0,0,1,2,1.06c1.11.86,1.08,2.34,1,3.64,0,.09-.51.54-.69.52S43.19,47,43.1,47a9.26,9.26,0,0,1-1.46,1.1c-.09,0-.63-.52-.87-.64a4.07,4.07,0,0,0-2.85-.31,10.76,10.76,0,0,0-3.38.4c.42.76,1.15,1.12,1.77,1.73,1,1,2,1.77,3.12,2.72A8.41,8.41,0,0,1,41.24,54c-.28.14,0,.28-.13.44s-.16-.21-.34-.24-.29.22-.23.41-.16.54-.35.61-.5.33-.65.3-.62-.23-.57-.17c.2.22.34.61.29.68a1.42,1.42,0,0,1-1-.42c-1.41-1.16-2.64-2.38-4.13-3.64a12.91,12.91,0,0,0-1.52-1.62c-1,2.31-1.73,4-2.76,6.28-.24.4-.37,1.47-.59,1.6s-.79-.77-1.1-1.41a31.61,31.61,0,0,1,.26-3.38l0-.26c.09-1.91.68-3.57.6-5.51,0-.17-.24-.21-.49-.24-2.59-.28-5.09-.54-7.66-.9a6.58,6.58,0,0,1-1.8-.34,1.12,1.12,0,0,0-.49-.24c-.07-.1-.07-.1-.15-.11a11.42,11.42,0,0,1,3.32-2.66C22.18,43,23.23,42.68,23.69,42.48Z"/><path class="cls-2" d="M47.63,55.85c-.15-.06-.07-.22-.07-.28.14-.28.49-.21.69-.21.69-.2,1.45,0,2.14-.2.14-.07.28-.28.35-.28a16,16,0,0,1,1.59-.48c.14-.06.48-.27.35-.48a5.85,5.85,0,0,1-1.52-2c-.21-.42-.55-.76-.55-1.18s.42-.41.76-.27A13,13,0,0,1,55,53.86c.21.27.42-.35.49-.56A33.81,33.81,0,0,1,57,49.92c.13-.34.41-.75.76-.82A4.92,4.92,0,0,0,59,48.34c.34-.14.62,0,1-.21s.48.28.76.15c.41-.28.76-.07,1.17,0a.57.57,0,0,1,.27.69,17.75,17.75,0,0,1-1.24,3c-.49.76-.9,1.45-1.46,2.21,0,.07-.07.21.07.28a4.75,4.75,0,0,1,1,.14,24.71,24.71,0,0,0,3.17.42c.55.14.55.9,1,1.31.28.21-.21.42-.48.49-.76.2-1.52-.08-2.28.13-1.31.27-2.55,0-3.8.47.41.42.83.76,1.17,1.18l1,1.45a5.66,5.66,0,0,1,.68,1.66,2.2,2.2,0,0,1,.07,1c-.14-.07-.14-.35-.28-.42s-.27.28-.48.21a.58.58,0,0,1-.34-.35,2.87,2.87,0,0,1-.62-1,7.24,7.24,0,0,0-2.35-2.42,32.14,32.14,0,0,1-2.63,5.11c-.07.14-.28.14-.48.14s-.21.13-.28.2c-.07-.14-.21-.2-.28-.28-.34-.27-.82-.55-1-1a2.53,2.53,0,0,1-.34-1.18c0-.07-.14-.21-.14-.28.14-.27.14-.62.28-.82a1.93,1.93,0,0,0,.55-.76A10.29,10.29,0,0,0,54,57.51c-1.66-.28-3.38-.14-5-.76a8.22,8.22,0,0,1-1.1-.49C47.77,56.12,47.84,55.91,47.63,55.85Z"/><path class="cls-4" d="M49.6,30.16c.5-1.2,1.33-2,1.47-3.35-2.73-1.46-6.06-.61-8-4.07-.48-.73,0-4.24.29-4.64.62-1.28,1.81-1.27,2.95-.38a3.32,3.32,0,0,1,1.15.25,10.66,10.66,0,0,1,3.49.51c1.56.17,2.85.75,4.27.6a1,1,0,0,0,.23-.8c-.34-2.09-.83-3.85-1.36-6a8,8,0,0,1-.3-1.68c-.1-1.2-1-3.13-.17-3.69.11-.08.26.25.37.17s.38-.48.56-.4c2.69,1.7,4.92,4.36,7.27,7,.77.73.91-1.28,1.51-1.91.16-.32,0-1,.14-1.36.57-1,.71-2.4,1.17-3.35C65.5,5.71,66,3.87,67.4,3.32a2.92,2.92,0,0,1,2.81,1c.18.08.6,0,.85.25,1,.81,1.76,1.93,2.79,2.9a1.73,1.73,0,0,1,.35,1.45c-.25,1.44-1.55,1.51-2.31,2.46L67.43,18.3c-.16.32-.58,1-.25,1.44a49.3,49.3,0,0,0,6.21,5.57c1.44.9,3,.83,4.32,2A10.92,10.92,0,0,1,79.78,31C74.55,34.21,68.61,28.88,63,29c-.41.08-.31.64-.35.88.3,2.33.71,4.57.94,6.73.13,1.61,1,3.13,1.19,4.66.11.56.64,2.09-.14,2A2.68,2.68,0,0,1,62,41.72a43.78,43.78,0,0,1-2.15-5.47,3,3,0,0,1-.12-1.6A5.58,5.58,0,0,0,59,32.24c-.15-.32-.53.16-.75.31a31.1,31.1,0,0,0-2.21,3,10.92,10.92,0,0,1-4.48,3.57c-1.27.47-3.21.77-4.08-1.16.41-.08.76-1,.5-1.2C46,34,48.75,32.24,49.6,30.16Z"/><path class="cls-2" d="M276.8,54.11a2.63,2.63,0,0,1,.57-.82,2.84,2.84,0,0,1,.84-.55,2.64,2.64,0,0,1,1-.2,2.6,2.6,0,0,1,1,.2,2.84,2.84,0,0,1,.84.55,2.77,2.77,0,0,1,.56.82,2.63,2.63,0,0,1,0,2.06,2.7,2.7,0,0,1-.56.83,2.5,2.5,0,0,1-.84.55,2.59,2.59,0,0,1-1,.19,2.63,2.63,0,0,1-1-.19,2.5,2.5,0,0,1-.84-.55,2.56,2.56,0,0,1-.57-.83,2.63,2.63,0,0,1,0-2.06Zm.43,1.91a2.12,2.12,0,0,0,.46.71,2.09,2.09,0,0,0,1.53.64,2.14,2.14,0,0,0,.84-.17,2.18,2.18,0,0,0,.68-.47,2.12,2.12,0,0,0,.46-.71,2.47,2.47,0,0,0,0-1.75,2,2,0,0,0-.46-.7,2.18,2.18,0,0,0-.68-.47,2.14,2.14,0,0,0-.84-.17,2.09,2.09,0,0,0-1.53.64,2,2,0,0,0-.46.7,2.47,2.47,0,0,0,0,1.75Zm2.15-2.4a1.26,1.26,0,0,1,.81.22.77.77,0,0,1,.26.65.72.72,0,0,1-.23.6,1,1,0,0,1-.57.23l.87,1.35H280l-.83-1.31h-.5v1.31h-.48V53.62Zm-.2,1.35h.3a.92.92,0,0,0,.25-.06.38.38,0,0,0,.18-.15.53.53,0,0,0,.06-.28.54.54,0,0,0-.05-.24.44.44,0,0,0-.16-.14.65.65,0,0,0-.21-.06l-.24,0h-.63v1Z"/><path class="cls-2" d="M276.8,54.11a2.63,2.63,0,0,1,.57-.82,2.84,2.84,0,0,1,.84-.55,2.64,2.64,0,0,1,1-.2,2.6,2.6,0,0,1,1,.2,2.84,2.84,0,0,1,.84.55,2.77,2.77,0,0,1,.56.82,2.63,2.63,0,0,1,0,2.06,2.7,2.7,0,0,1-.56.83,2.5,2.5,0,0,1-.84.55,2.59,2.59,0,0,1-1,.19,2.63,2.63,0,0,1-1-.19,2.5,2.5,0,0,1-.84-.55,2.56,2.56,0,0,1-.57-.83,2.63,2.63,0,0,1,0-2.06Zm.43,1.91a2.12,2.12,0,0,0,.46.71,2.09,2.09,0,0,0,1.53.64,2.14,2.14,0,0,0,.84-.17,2.18,2.18,0,0,0,.68-.47,2.12,2.12,0,0,0,.46-.71,2.47,2.47,0,0,0,0-1.75,2,2,0,0,0-.46-.7,2.18,2.18,0,0,0-.68-.47,2.14,2.14,0,0,0-.84-.17,2.09,2.09,0,0,0-1.53.64,2,2,0,0,0-.46.7,2.47,2.47,0,0,0,0,1.75Zm2.15-2.4a1.26,1.26,0,0,1,.81.22.77.77,0,0,1,.26.65.72.72,0,0,1-.23.6,1,1,0,0,1-.57.23l.87,1.35H280l-.83-1.31h-.5v1.31h-.48V53.62Zm-.2,1.35h.3a.92.92,0,0,0,.25-.06.38.38,0,0,0,.18-.15.53.53,0,0,0,.06-.28.54.54,0,0,0-.05-.24.44.44,0,0,0-.16-.14.65.65,0,0,0-.21-.06l-.24,0h-.63v1Z"/></svg>