<svg width="319" height="101" viewBox="0 0 319 101" fill="none" xmlns="http://www.w3.org/2000/svg">
<g clip-path="url(#clip0_1001_104370)">
<path d="M64.7558 90.6972H17.4441C8.34162 90.6972 0.932617 83.2881 0.932617 74.1504V26.8386C0.932617 17.7361 8.34162 10.3271 17.4441 10.3271H64.7558C73.8936 10.3271 81.2673 17.7361 81.2673 26.8386V74.1504C81.3026 83.2881 73.8936 90.6972 64.7558 90.6972Z" fill="#0E214B"/>
<path fill-rule="evenodd" clip-rule="evenodd" d="M250.298 35.2706C255.485 35.9762 258.978 39.8218 258.272 47.4072C256.543 66.0356 240.385 85.0873 216.464 84.5581L215.723 84.5228L215.794 84.3817C239.22 84.4522 253.897 64.7654 255.485 47.3014C256.12 40.4569 252.98 36.9641 248.393 36.329C241.619 35.3764 233.434 39.5043 228.495 46.4899L228.318 46.7369L228.248 46.631C233.469 38.7281 242.678 34.2121 250.298 35.2706ZM298.386 35.0236C314.263 35.9409 318.849 47.5483 318.743 53.8989C318.461 70.9396 305.196 82.8999 282.51 84.4875L281.804 84.5228L281.84 84.4169C302.973 82.794 315.992 69.1403 316.274 52.2407C316.38 46.4546 312.428 36.5407 298.704 35.2L298.281 35.1647L298.386 35.0236ZM214.488 16.5364C216.852 19.6411 213.924 25.9564 212.266 30.1901L212.195 30.3665L199.106 64.3774C198.224 66.6353 197.201 69.1756 196.954 71.9275C196.389 78.3133 201.999 83.8172 213.077 84.3817L213.43 84.4169L213.395 84.5228C200.517 84.1347 194.343 77.7841 194.943 70.7632C195.19 68.0113 196.036 65.7886 196.848 63.6717L196.954 63.3895L209.972 29.6256C210.113 29.2023 210.255 28.8142 210.431 28.3908L210.572 27.9674C210.643 27.7557 210.713 27.5793 210.819 27.3676L210.96 26.9796C212.371 23.2398 213.536 19.7822 211.595 17.4537L211.489 17.3479V17.1715L214.488 16.5364ZM296.058 34.8825L296.023 34.9883C276.265 36.576 261.871 50.3708 261.553 67.1646C261.447 72.9506 265.505 83.0763 279.158 84.2405L279.582 84.2758L279.546 84.3817C263.635 83.4643 259.048 71.7511 259.154 65.4005C259.436 48.2893 273.937 36.2584 296.058 34.8825ZM246.418 37.5638C250.616 38.1636 253.297 41.2331 252.733 47.2661C251.216 63.4953 236.751 83.676 216.499 84.2053H215.9L215.935 84.0994C234.422 82.9704 248.676 62.2605 250.087 47.1955C250.581 41.9034 248.146 39.1515 244.548 38.6576C239.326 37.9519 232.905 41.3389 228.812 46.878L228.636 47.0897L228.565 46.9839C233.011 40.4569 240.384 36.7171 246.418 37.5638ZM298.245 35.3059C310.452 36.2937 314.192 45.0787 314.122 50.4414C313.839 66.8823 301.315 82.4765 282.58 84.17L282.016 84.2053L282.051 84.0994C298.951 82.3706 311.511 65.083 311.793 48.7479C311.864 43.9497 308.371 36.6113 298.492 35.447L298.21 35.4117L298.245 35.3059ZM220.662 15.2663C222.673 17.9829 219.04 26.027 217.699 29.4492L217.628 29.5903L203.445 66.2473C202.563 68.3994 201.293 71.6452 201.046 74.3972C200.588 79.6187 205.068 83.5702 213.289 84.0994H213.536L213.5 84.2053C203.551 83.8172 198.506 79.0542 199 73.1976C199.247 70.4457 200.305 67.729 201.187 65.5416L201.293 65.2594L215.017 29.6609C216.499 25.9917 219.498 19.4294 217.522 16.2541L217.417 16.113V15.9366L220.662 15.2663ZM295.917 35.2L295.881 35.3059C279.476 37.0346 266.492 54.6398 266.21 70.6574C266.14 75.4556 269.068 82.8999 279.405 83.9936L279.723 84.0288L279.687 84.1347C267.48 83.3232 263.705 74.256 263.811 68.8933C264.058 52.4171 277.535 36.576 295.917 35.2ZM227.013 13.9609C228.036 16.9598 223.838 26.6267 222.991 28.8494L222.956 28.92L207.82 68.0466C206.938 70.3046 205.527 74.0091 205.28 76.761C205.033 79.654 206.48 81.7003 209.408 82.7587C211.313 83.4644 213.006 83.7113 213.642 83.7819H213.712L213.677 83.8877C206.55 83.3938 202.74 80.1832 203.163 75.4909C203.375 72.9153 204.68 69.5637 205.597 67.3057L205.703 67.0587L220.486 28.8142C221.474 26.2739 225.461 17.3479 224.014 14.8429L223.944 14.7371V14.5607L227.013 13.9609ZM298.104 35.6234C306.642 36.576 309.465 42.6443 309.394 46.9839C309.112 62.825 297.328 81.9473 282.58 83.8524L282.122 83.8877L282.192 83.7819C295.07 82.0531 306.783 60.9904 307.065 45.2904C307.136 41.48 304.807 36.8229 298.281 35.7292L298.034 35.694L298.104 35.6234ZM242.678 39.8924C245.712 40.3158 247.758 42.6796 247.335 47.1603C246.1 60.6376 233.575 81.3828 216.605 83.7819L216.076 83.8524L216.111 83.7466C231.705 80.4655 243.419 59.3322 244.583 46.9839C244.936 43.3499 243.313 41.3389 240.702 40.9861C237.068 40.4922 232.446 42.9971 229.095 47.2661L228.918 47.4778L228.848 47.3719C232.34 42.362 238.056 39.2573 242.678 39.8924ZM102.612 21.4757C102.648 21.511 102.683 21.511 102.718 21.5463L102.824 21.6169C104.482 22.8517 106.352 24.651 108.116 32.7304L108.187 33.0126L119.124 83.7466H116.654C116.654 83.7466 105.823 33.4713 105.788 33.4007C104.235 26.3092 102.26 23.2398 98.3434 21.6169L98.167 21.5463V21.4404L102.612 21.4757ZM110.833 21.4757C110.868 21.758 110.903 22.0049 110.939 22.2872L110.974 22.4989C111.256 24.5805 111.644 26.662 112.914 32.1306L112.985 32.4128L124.063 83.7819H121.594L110.551 32.5892C109.104 26.662 108.575 23.9101 106.811 21.6874L106.705 21.5816V21.4757H110.833ZM295.776 35.4823L295.705 35.5881C283.286 37.3169 271.079 58.7677 270.797 74.0796C270.726 77.89 273.055 82.7235 279.582 83.6408L279.793 83.676L279.723 83.7819C271.291 83.0763 268.362 76.6551 268.433 72.2803C268.786 56.6861 281.205 37.0346 295.776 35.4823ZM157.686 42.5032C159.062 42.5032 159.873 43.2794 159.944 44.7612C160.014 46.0665 159.132 48.7479 158.074 51.4998L157.898 51.9585L157.686 52.4877C156.874 54.534 156.028 56.545 155.428 58.0268L155.322 58.2385L145.126 83.7466H142.586L152.888 58.0621C154.264 54.7104 157.686 46.9486 157.58 44.867C157.545 43.8791 157.016 43.491 156.239 43.491C154.405 43.491 151.194 48.0776 149.113 52.7346L149.007 52.9463H148.866C150.983 47.6189 154.475 42.5032 157.686 42.5032ZM160.403 40.6333C162.943 40.6333 164.389 42.2209 164.53 44.4789C164.707 47.8659 161.92 54.287 160.261 58.3443L160.156 58.556L150.242 83.7466H147.701L157.827 58.3443C159.274 54.4987 162.343 47.6189 162.202 44.5495C162.096 42.6796 160.967 41.5859 159.027 41.5859C154.617 41.5859 150.947 47.125 148.76 52.6994L148.689 52.911H148.548C150.594 46.5958 154.899 40.6333 160.403 40.6333ZM165.871 36.7877C170.775 36.7877 173.457 39.9277 173.668 43.985C173.915 48.6068 172.292 53.0875 170.528 57.5681L170.246 58.2385L170.034 58.7324L169.823 59.2263L160.438 83.7466H157.898L167.459 59.0499C169.258 54.2164 171.516 48.9243 171.269 44.0908C171.093 40.4569 168.694 37.7755 164.389 37.7755C155.393 37.7755 150.242 44.8317 147.948 52.6994L147.878 52.9463H147.772C149.889 44.3731 155.745 36.7877 165.871 36.7877ZM163.154 38.6576C166.859 38.6576 168.941 41.0214 169.117 44.1614C169.329 48.5009 166.93 54.04 165.201 58.5207L165.095 58.803L155.428 83.7113H152.782L162.625 58.6971C164.354 54.3576 166.965 48.1481 166.753 44.3378C166.612 41.5859 164.848 39.6101 161.708 39.6101C155.146 39.6101 150.594 45.9254 148.336 52.6641L148.266 52.8758H148.16C150.312 45.5726 155.181 38.6576 163.154 38.6576ZM192.438 34.9178C195.684 34.9178 198.33 36.9993 198.541 41.5153C199.035 50.7589 190.709 58.309 181.571 59.7908L181.289 59.8261L181.218 59.7203C189.051 57.9562 196.813 50.8648 196.354 42.5032C196.142 38.5517 193.814 36.6818 190.956 36.6818C185.699 36.6818 181.113 41.1272 178.255 47.0191C178.219 47.3014 178.219 47.6189 178.184 47.9364C180.795 42.5032 184.852 38.34 189.404 38.34C191.944 38.34 193.884 39.9982 194.061 43.4558C194.449 50.6531 187.71 57.674 181.218 59.438L181.007 59.4733L180.901 59.3675C186.264 57.3917 192.191 50.6884 191.873 44.4083C191.732 41.5506 190.074 40.0688 187.922 40.0688C183.97 40.0688 180.442 44.0555 178.008 49.1007C177.937 49.4888 177.902 49.8416 177.831 50.2297C179.984 45.5373 183.124 41.7623 186.369 41.7623C188.31 41.7623 189.58 43.0324 189.686 45.3962C189.968 50.6531 185.24 57.0389 180.866 59.1205L180.724 59.1911L180.619 59.0852C183.829 57.0036 187.71 50.7236 187.498 46.3841C187.393 44.62 186.475 43.5263 184.923 43.5263C182.312 43.5263 179.56 47.2308 177.549 51.5704C177.373 52.276 177.196 52.9463 176.949 53.652C178.819 49.3124 181.324 45.2198 183.3 45.2198C184.57 45.2198 185.099 46.1018 185.17 47.3719C185.346 50.5825 182.806 56.6156 180.513 58.7677L180.407 58.8735L180.301 58.7677C182.312 55.169 183.229 50.9353 183.053 48.3951C182.982 47.7248 182.735 46.9486 181.853 46.9486C180.795 46.9486 178.925 50.0533 177.232 53.405L177.055 53.7931L176.879 54.1812C176.808 54.3223 176.738 54.4281 176.702 54.5693L176.597 54.7457C176.138 56.0863 175.609 57.4623 175.079 58.9088L174.868 59.4733L165.659 83.676H163.119L172.398 59.2616C174.374 54.04 176.279 49.5241 175.997 43.7027C175.75 39.2573 172.751 35.8351 167.282 35.8351C155.957 35.8351 150.03 43.738 147.772 52.5935L147.701 52.8758H147.596C149.677 43.3146 155.992 34.8825 168.694 34.8825C174.762 34.8825 178.078 38.7281 178.361 43.6322C178.396 44.4083 178.396 45.1492 178.396 45.8549C181.43 39.5749 186.546 34.9178 192.438 34.9178ZM233.434 12.6555C234.281 13.5728 228.424 27.8969 227.93 29.2023V29.2375L212.16 69.9518C211.384 72.0333 209.62 76.6199 209.373 79.1601C209.161 81.7709 211.101 83.041 213.677 83.5349L213.818 83.5702L213.747 83.676C209.902 83.0763 207.009 81.2769 207.291 77.9958C207.503 75.4203 208.984 71.5041 209.866 69.1756L209.937 68.9639L225.355 29.0259C225.743 27.9321 226.907 25.1449 227.966 22.1108L228.142 21.5816C229.2 18.5474 230.153 15.4074 230.153 13.6081V13.467V13.3258L233.434 12.6555ZM297.963 35.9409C302.902 36.7524 304.808 40.2099 304.737 43.5616C304.455 58.803 293.447 81.5945 282.616 83.5702L282.298 83.6055L282.369 83.4996C291.154 81.8767 302.091 56.9331 302.373 41.9034C302.408 39.1162 301.244 37.0346 298.139 36.1526L297.963 36.1173V35.9409ZM238.797 42.1856C240.843 42.4679 242.078 44.1261 241.831 46.9133C240.843 57.7093 229.165 79.5835 216.64 83.3938L216.252 83.4996L216.323 83.3585C227.295 78.5956 238.268 56.4391 239.15 46.878C239.326 44.7964 238.373 43.491 236.927 43.3146C234.74 42.9971 231.67 44.9023 229.342 47.6542L229.2 47.8306L229.13 47.7248C231.882 44.0908 235.763 41.7623 238.797 42.1856ZM295.634 35.7998L295.564 35.9056C287.061 37.6344 275.701 63.0367 275.454 77.5019C275.418 80.3243 276.442 82.6529 279.793 83.3232L279.97 83.3585L279.899 83.4644C274.748 82.8999 273.055 79.0895 273.125 75.7378C273.407 60.8493 285.085 37.3522 295.634 35.7998ZM240.067 11.3501L216.499 71.8569C215.617 74.1149 213.606 78.7367 213.395 81.3122C213.324 82.3001 213.642 83.041 213.959 83.2527L213.994 83.2879L213.924 83.4644C213.712 83.3938 213.571 83.3232 213.395 83.2527C212.301 82.7234 211.454 81.3828 211.489 80.2891C211.595 77.7841 213.395 73.3034 214.277 71.0807L214.347 70.9043L230.4 29.3787C230.541 28.9553 232.34 24.5099 233.999 20.2056L234.175 19.7117C235.586 16.0072 236.892 12.5496 236.856 12.0557V12.0204L240.067 11.3501ZM117.607 21.4757C116.972 23.5573 116.584 26.5915 118.136 33.1184L118.207 33.436L127.38 76.8668L125.757 80.2891L115.455 32.307C114.396 27.6499 114.114 25.2508 114.043 23.0634V22.7811C114.043 22.4989 114.043 22.2166 114.043 21.9344V21.6521V21.511L117.607 21.4757ZM124.804 21.4757V21.5816C122.546 23.5926 121.946 27.156 123.252 33.8946L123.322 34.1769L130.696 69.9165L129.038 73.374L120.712 33.5065C119.336 26.7679 119.688 24.1218 120.853 21.5816L120.888 21.4757H124.804ZM135 21.4757V21.5816C128.685 22.7811 126.85 26.3092 128.403 34.3533L133.977 62.9661L132.319 66.4589L125.933 34.4238C123.957 25.0744 127.344 22.4283 129.073 21.5463L129.179 21.511L135 21.4757ZM165.518 21.4757V21.5816C155.957 24.4746 151.653 30.0137 144.314 43.7733L144.103 44.1967L143.926 44.0908C150.383 30.296 153.488 24.6157 158.568 21.5463L158.709 21.4404C158.709 21.4757 165.518 21.4757 165.518 21.4757ZM154.052 21.4757V21.5816C153.241 22.7811 152.535 24.016 151.723 25.6389L151.582 25.9564C149.924 29.3081 147.878 34.2474 143.926 43.6674L143.785 44.0203L143.609 43.9144C147.525 32.9773 149.536 27.6146 149.077 21.8638V21.6521V21.511C149.042 21.4757 154.052 21.4757 154.052 21.4757ZM145.161 21.4757C148.583 24.9333 147.384 30.6488 143.574 43.3852L143.468 43.7733L143.291 43.6674C146.925 29.2728 145.761 23.6279 140.434 21.6521L140.257 21.5816V21.4757H145.161Z" fill="#0E214B"/>
<path d="M51.1373 43.9146L51.2784 44.0205C54.6654 32.8011 55.7591 27.8618 52.7602 24.8276H48.4912V24.9335C53.2541 26.5917 54.3478 31.3899 51.1373 43.9146Z" fill="#8EC089"/>
<path fill-rule="evenodd" clip-rule="evenodd" d="M64.6149 24.8276C60.0989 27.4384 57.4175 32.3072 51.7373 44.3027L51.8784 44.4086C58.4054 32.2719 62.1099 27.4384 70.5421 24.9335V24.8276H64.6149Z" fill="#2474DE"/>
<path d="M51.4199 44.1263L51.561 44.2322C56.9237 31.6369 58.2997 28.2146 60.5224 24.9335V24.8276H56.1828V24.9688C56.6415 29.9787 54.8775 34.6005 51.4199 44.1263Z" fill="#E85F24"/>
<path fill-rule="evenodd" clip-rule="evenodd" d="M15.7157 24.8276H11.8701V24.9335C15.3982 26.3094 17.0917 28.9555 18.5029 35.1297C18.5029 35.2002 27.9582 78.4547 27.9582 78.4547H30.1104L20.5845 34.7769C18.9263 27.2973 17.1975 25.9213 15.7157 24.8276Z" fill="#76C5F7"/>
<path fill-rule="evenodd" clip-rule="evenodd" d="M35.8607 75.4205L37.272 72.4922L29.2985 35.0944C27.8872 29.273 28.2048 26.627 28.8045 24.8276H25.6998C25.6645 27.1915 25.7704 29.1319 26.8994 34.1065L35.8607 75.4205Z" fill="#2474DE"/>
<path d="M22.877 24.8276H19.2783V24.9335C20.9012 26.8739 21.3599 29.2378 22.63 34.4241L32.2264 78.49H34.3786L24.7821 34.2477C23.4062 28.6027 23.1945 27.0151 22.877 24.8276Z" fill="#318EEE"/>
<path d="M38.7181 69.4933L40.1646 66.5297L33.7434 35.7647C32.5439 29.8023 33.0731 26.6975 35.0488 24.9335V24.8276H31.6266C30.5682 27.0503 30.2506 29.273 31.4502 35.2002L38.7181 69.4933Z" fill="#E85F24"/>
<path d="M36.002 35.9763C34.2732 27.7558 37.378 25.5684 38.8245 24.8628H43.9049V24.9686C38.4011 26.0271 36.8135 29.0259 38.1541 35.9763L43.0229 60.6024L41.5764 63.6013L36.002 35.9763Z" fill="#8EC089"/>
</g>
<defs>
<clipPath id="clip0_1001_104370">
<rect width="317.811" height="80.37" fill="white" transform="translate(0.932617 10.3271)"/>
</clipPath>
</defs>
</svg>
